<?xml version="1.0" encoding="UTF-8"?>
<svg id="Layer_2" data-name="Layer 2" xmlns="http://www.w3.org/2000/svg" viewBox="0 0 40.53 32.9">
  <defs>
    <style>
      .cls-1 {
        fill: #c9a66b;
        stroke-width: 0px;
      }
    </style>
  </defs>
  <g id="Layer_1-2" data-name="Layer 1">
    <path class="cls-1" d="M0,28.89c.23-.13.44-.34.68-.37.34-.05.58.28.58.7,0,.76,0,1.53,0,2.34,12.68-2.05,25.32-4.09,37.98-6.13v-4.41c-.82.13-1.63.25-2.43.38-3.88.62-7.75,1.25-11.63,1.88-3.84.62-7.68,1.24-11.51,1.86-1.96.32-3.93.63-5.89.95-.41.07-.74-.15-.81-.51-.06-.36.17-.66.6-.73,1.91-.32,3.82-.63,5.74-.93,3.53-.57,7.05-1.13,10.58-1.7,4.05-.65,8.09-1.3,12.14-1.96,1.07-.17,2.13-.35,3.22-.53v-3.77c-.64.1-1.28.19-1.91.29-4.54.73-9.08,1.46-13.62,2.2-1.87.3-3.75.61-5.62.91-.17.03-.35.06-.51.02-.3-.07-.47-.28-.48-.6-.01-.33.21-.58.58-.64.84-.14,1.69-.27,2.54-.41,3.53-.57,7.05-1.14,10.58-1.71,2.68-.43,5.36-.87,8.04-1.3.13-.02.26-.05.41-.07v-4.4c-.82.13-1.63.26-2.45.39-4.02.65-8.04,1.3-12.06,1.94-2.19.35-4.37.7-6.56,1.06-1.12.19-1.71.91-1.71,2.06,0,1.35.02,2.69,0,4.04-.03,1.52-1.14,2.74-2.69,3.02-1.43.25-2.91-.56-3.41-1.91-.14-.36-.2-.77-.21-1.16-.04-1.12-.84-1.97-1.91-1.97-1.04,0-1.9.88-1.9,1.98,0,1.87.01,3.75,0,5.62-.02,1.78-1.53,3.22-3.28,3.16-1.39-.04-2.59-1.02-2.95-2.39-.03-.1-.06-.2-.09-.29,0-2.82,0-5.65,0-8.47.04-.14.08-.27.11-.41.28-1.15.91-2.08,1.91-2.71,5.92-3.75,11.85-7.49,17.78-11.24.41-.26.79-.2,1,.14.2.34.09.67-.35.95-4.78,3.02-9.56,6.04-14.34,9.06-1.09.69-2.18,1.38-3.28,2.07-1.05.66-1.57,1.6-1.57,2.84,0,2.39,0,4.78,0,7.16,0,1.18.81,2.04,1.9,2.04,1.05,0,1.89-.89,1.9-2.03,0-1.86-.01-3.72,0-5.58.02-1.79,1.55-3.23,3.32-3.15,1.67.07,2.97,1.45,3,3.18.03,1.34,1.16,2.17,2.44,1.8.81-.24,1.35-.95,1.35-1.84,0-1.27,0-2.53,0-3.8,0-1.93,1.01-3.13,2.9-3.44,5.98-.97,11.97-1.92,17.95-2.89.96-.15,1.93-.31,2.89-.47.09-.01.17-.05.28-.08-.1-.95-.48-1.76-1.06-2.48-1.09-1.36-2.54-2.2-4.1-2.88-2.42-1.06-4.98-1.59-7.56-2.09-1.18-.23-2.16-.07-3.06.7-.27.23-.59.39-.9.57-.35.2-.71.12-.9-.18-.19-.31-.11-.66.23-.89.82-.53,1.64-1.05,2.48-1.56.14-.09.35-.12.53-.11,3.2.34,6.33.99,9.31,2.22,1.49.62,2.9,1.39,4.1,2.49,1.17,1.07,1.98,2.35,2.2,3.96,0,.04.04.07.06.1v17.42c-.24.14-.46.36-.72.4-3.61.6-7.23,1.18-10.85,1.76-4.66.75-9.31,1.51-13.97,2.26-4.67.75-9.34,1.49-14.01,2.26-.43.07-.74,0-.99-.35C0,31.31,0,30.1,0,28.89Z"/>
  </g>
</svg>