<?xml version="1.0" encoding="UTF-8"?>
<svg id="Layer_2" data-name="Layer 2" xmlns="http://www.w3.org/2000/svg" viewBox="0 0 395.7 225.64">
  <defs>
    <style>
      .cls-1 {
        fill: #f5f5f5;
        stroke-width: 0px;
      }
    </style>
  </defs>
  <g id="Layer_1-2" data-name="Layer 1">
    <g>
      <g>
        <path class="cls-1" d="M239.36,169.88c-1.78,2.27-3.3,3.41-4.57,3.41h-.39c-1.82-.69-3.2-1.03-4.12-1.03-2.7,0-7.81,3.65-15.31,10.94-5.3,4.52-9.29,7.36-11.97,8.49-3.97,2.06-9.59,3.09-16.86,3.09-4.03,0-7.29-1.97-9.78-5.92-.77-1.76-1.16-3.47-1.16-5.15,0-4.98,1.8-10.55,5.4-16.73l.26-.13c0,.09.04.13.13.13-1.72,5.34-2.57,8.77-2.57,10.29,0,3.65,2.27,6.13,6.82,7.46,1.11.34,3.73.51,7.85.51h.39c5.94,0,11.99-2.4,18.14-7.21,3.35-2.44,7.12-5.4,11.32-8.88,4.05-3.09,7.18-4.63,9.39-4.63,1.54,0,3.17.64,4.89,1.93,1.35,1.03,2.06,2.17,2.12,3.41ZM196.48,146.46c0,.09.01.15.03.19,0,.06,0,.12.03.16,0,.04,0,.09.02.15,0,.05.02.1.02.14v.45s0,.09-.02.14c-.01.05-.02.1-.02.15l-.1.39s0,.08-.02.1c-.01.02-.02.05-.02.1l-.13.39c-.04.09-.08.17-.11.26-.03.09-.07.17-.11.26,0,.02,0,.04-.02.05-.01.01-.02.03-.02.05l-.16.29c-.04.11-.1.2-.16.27-.06.08-.12.16-.16.24-.04.04-.06.08-.06.1l-.39.58-.16.23s-.08.1-.11.16c-.03.06-.07.12-.11.16-.09.13-.16.23-.23.29l-.51.64s-.06.08-.06.1c-.04.04-.09.1-.14.16-.05.06-.11.12-.18.16l-.19.19c-.06.11-.15.19-.26.26l-.32.32-.16.13c-.24.19-.44.32-.61.39l-.19.06h-.23c-.17,0-.32-.06-.45-.19-.47-.36-.93-.74-1.37-1.13-.44-.39-.91-.76-1.4-1.13-.15-.13-.3-.25-.45-.35-.45-.34-.89-.65-1.32-.93-.02,0-.03-.01-.03-.03-.11-.11-.16-.2-.16-.29s.05-.21.16-.39l4.92-7.5s0-.04.03-.06c.15-.19.31-.27.48-.23l.06.03s.04.01.06.03l.23.1s.08.07.13.08c.04.01.08.04.13.08.04.02.08.04.13.06.04.02.09.05.13.1.09.04.17.1.26.16.13.09.26.17.39.24.13.08.26.17.39.27l.13.1c.19.15.38.3.55.45s.34.31.52.48l.38.45.29.39c.15.21.27.43.35.64.04.06.08.16.13.29l.1.29s.03.04.03.06.01.05.03.1c0,.06.01.11.03.13ZM206.32,145.85c.17.6.17,1.22-.02,1.87-.18.64-.5,1.31-.95,1.99-.36.56-.73,1.08-1.11,1.56-.38.48-.79.94-1.24,1.37-.28.3-.53.51-.74.64-.21.13-.4.21-.55.24-.15.03-.28.03-.39-.02s-.2-.1-.29-.16c-.75-.6-1.49-1.21-2.2-1.82-.72-.61-1.51-1.19-2.36-1.72-.11-.15-.16-.26-.16-.34s.05-.2.16-.37l4.89-7.53c.15-.19.29-.28.43-.27.14.01.29.07.47.18.43.26.86.53,1.3.82.44.29.84.62,1.21.98.36.36.69.76.97,1.17.28.42.47.88.58,1.4Z"/>
        <path class="cls-1" d="M237.24,164.64c1.42-.69,2.7-1.57,3.84-2.64,1.15-1.07,2.21-2.24,3.2-3.49.99-1.25,1.93-2.56,2.83-3.91.9-1.35,1.82-2.64,2.77-3.86.47-.6.95-1.16,1.43-1.67s1-1.04,1.56-1.58c.15-.3.32-.62.5-.97.18-.34.36-.67.53-.98.17-.31.33-.59.47-.84.14-.25.24-.43.31-.56.19-.36.43-.62.71-.76.28-.14.57-.02.87.37.28.32.68.78,1.19,1.37.51.59,1,1.24,1.46,1.96.46.72.83,1.47,1.09,2.25.27.78.29,1.52.08,2.2-.09.28-.21.62-.37,1.03-.16.41-.34.83-.55,1.27-.2.44-.43.86-.69,1.27-.26.41-.53.76-.8,1.06-1.09,1.2-2.51,1.49-4.25.87-.9-.26-1.82-.23-2.77.1-1.27.41-2.41,1.32-3.44,2.73l-6.63,9.04c-.41.54-.86.97-1.37,1.3-.5.33-1.03.56-1.59.69-.79.15-1.51.06-2.16-.26-.26-.13-.56-.26-.92-.39-.35-.13-.68-.23-.98-.29-.24-.69-.39-1.38-.45-2.08-.06-.7.09-1.39.45-2.07.79-.09,1.5-.25,2.11-.5s1.13-.48,1.56-.69Z"/>
        <path class="cls-1" d="M271.34,143.63l.26.39v.77c0,1.31-1.07,6.24-3.22,14.8-.6,2.83-.9,4.98-.9,6.43,0,5.06,2.32,7.59,6.95,7.59,2.1,0,4.03-.81,5.79-2.44,0-.17.04-.26.13-.26,0-.9-.69-1.54-2.06-1.93h-.26c-1.61.77-2.6,1.16-2.96,1.16h-.39c-.86,0-1.37-.64-1.54-1.93,2.47-6.95,3.97-10.42,4.5-10.42.3-.34.64-.51,1.03-.51h.64c1.74,0,3.24,1.33,4.5,3.99.34,1.12.51,2.4.51,3.86,0,2.94-1.07,6.5-3.22,10.68-3.65,5.32-7.08,7.98-10.29,7.98h-.77c-3.15,0-5.34-1.54-6.56-4.63-.21,0-.47-1.2-.77-3.6v-2.57c0-5.68,2.53-15.21,7.59-28.57.39-.51.73-.77,1.03-.77ZM282.6,129.35c0,.09.01.15.03.19,0,.06.01.12.03.16,0,.04,0,.09.02.15.01.05.02.1.02.14v.45s0,.09-.02.14c-.01.05-.02.1-.02.15l-.1.39s0,.08-.02.1c-.01.02-.02.05-.02.1l-.13.39c-.04.09-.08.17-.11.26-.03.09-.07.17-.11.26,0,.02,0,.04-.02.05-.01.01-.02.03-.02.05l-.16.29c-.04.11-.1.2-.16.27-.06.08-.12.16-.16.24-.04.04-.06.08-.06.1l-.39.58-.16.23s-.08.1-.11.16c-.03.06-.07.12-.11.16-.09.13-.16.23-.23.29l-.51.64s-.06.08-.06.1c-.04.04-.09.1-.14.16-.05.06-.11.12-.18.16l-.19.19c-.06.11-.15.19-.26.26l-.32.32-.16.13c-.24.19-.44.32-.61.39l-.19.06h-.23c-.17,0-.32-.06-.45-.19-.47-.36-.93-.74-1.37-1.13-.44-.39-.91-.76-1.4-1.13-.15-.13-.3-.25-.45-.35-.45-.34-.89-.65-1.32-.93-.02,0-.03-.01-.03-.03-.11-.11-.16-.2-.16-.29s.05-.21.16-.39l4.92-7.5s0-.04.03-.06c.15-.19.31-.27.48-.23l.06.03s.04.01.06.03l.22.1s.09.07.13.08.08.04.13.08c.04.02.08.04.13.06.04.02.09.05.13.1.09.04.17.1.26.16.13.09.26.17.39.24.13.08.26.17.39.27l.13.1c.34.26.7.57,1.06.93l.39.45.29.39c.15.21.27.43.35.64.04.06.09.16.13.29l.1.29s.03.04.03.06.01.05.03.1c0,.06.01.11.03.13ZM292.44,128.73c.17.6.17,1.22-.02,1.87-.18.64-.5,1.31-.95,1.99-.37.56-.73,1.08-1.11,1.56-.38.48-.79.94-1.24,1.37-.28.3-.53.52-.74.64-.21.13-.4.21-.55.24-.15.03-.28.03-.39-.02-.11-.04-.2-.1-.29-.16-.75-.6-1.49-1.21-2.2-1.82-.72-.61-1.51-1.18-2.36-1.72-.11-.15-.16-.26-.16-.34s.05-.2.16-.37l4.89-7.53c.15-.19.29-.28.43-.27.14.01.29.07.47.18.43.26.86.53,1.3.82.44.29.84.62,1.21.98.36.36.69.76.96,1.17.28.42.47.88.58,1.4Z"/>
        <path class="cls-1" d="M303.96,147.07c-.15.9-.45,4.11-.88,9.62-.44,5.51-.94,9.28-1.5,11.29-1.67,6.2-3.81,10.64-6.4,13.32-1.09.84-2.36,1.34-3.81,1.51-1.45.17-2.42.17-2.91,0,0-.17,1.14-1.16,3.41-2.96,4.14-3.26,6.56-6.8,7.27-10.62.21-1.57.41-3.85.58-6.87.17-3.01.3-5.13.39-6.35.19-1.37.76-3.38,1.71-6.02.94-2.64,1.63-4.19,2.06-4.66.17-.13.27-.1.29.1.02.19-.04.74-.19,1.64Z"/>
      </g>
      <g>
        <path class="cls-1" d="M166.55,61.33c-.62,2.86-1.43,11.48-2.43,25.88-1.09,14.22-2.03,23.14-2.83,26.76-1.27,6.15-3.5,12.41-6.69,18.77-3.2,6.36-7.43,11.77-12.7,16.23-5.27,4.46-10.94,6.69-17,6.69s-10.68-1.67-13.85-5.01c-3.17-3.34-4.75-7.81-4.75-13.4,0-8.8,3.56-18.24,10.69-28.31.41-.68.82-1.03,1.21-1.06s.6.18.6.64-.19.95-.57,1.48c-4.15,6.89-6.23,12.74-6.23,17.56s1.67,8.43,5.01,10.84c3.34,2.41,7.28,3.59,11.81,3.53,6.92,0,12.95-2.05,18.09-6.14,5.14-4.09,8.52-9.52,10.14-16.3.47-2.09,1.04-9.54,1.72-22.35.71-13.25,1.34-21.42,1.9-24.51.59-3.24,2.03-7.3,4.33-12.19,1.21-2.59,1.81-3.08,1.81-1.46,0,.56-.09,1.34-.27,2.34Z"/>
        <path class="cls-1" d="M280.02,21.85c.12.24.18.41.18.53-.79,3.74-2.92,7.21-6.36,10.42-12.22,10.33-27.35,21.35-45.4,33.04-18.31,11.92-32.57,21.88-42.75,29.86-2.09,2.12-3.68,3.95-4.77,5.48h.18c1.97-1.18,6.1-1.77,12.37-1.77,5.06,0,7.6.82,7.6,2.47-.77,2.86-2.24,5.04-4.42,6.54-9.95,4.68-15.66,8.16-17.14,10.42l-1.41,2.12h1.24c.44,0,2.15-.18,5.12-.53.59.09.88.27.88.53v.88c0,1.15-1,3.56-3,7.24-2.15,3.06-4.21,4.59-6.18,4.59h-1.06c-3.33,0-5.51-2.65-6.54-7.95-.24-1.85-.35-3.44-.35-4.77v-2.65c0-8.01,1.88-19.96,5.65-35.86,1.3-2.94,2.3-4.42,3-4.42.24.47.35.88.35,1.24,0,1.03-1.47,9.57-4.42,25.62-.24,1.3-.35,2.77-.35,4.42v1.94c0,6.01,1.3,9.01,3.89,9.01.74-2.06,2.8-4.77,6.18-8.13,2.27-1.77,5.33-3.59,9.19-5.48v-.88l-1.24-.35h-3.36c-2.27,0-5.68.35-10.25,1.06l-.18-.35v-.35c.41-3.77,3-8.54,7.77-14.31,9.75-9.25,17.81-15.78,24.2-19.61,9.1-6.15,23.82-15.63,44.17-28.44,8.86-5.74,16.99-11.98,24.38-18.73,0-.15.94-1.09,2.83-2.83Z"/>
        <path class="cls-1" d="M232.1,118.3c-1.56,4.21-3.35,7.66-5.37,10.36-2.02,2.69-3.83,4.56-5.43,5.61-1.61,1.04-3.04,1.57-4.31,1.57-1.56,0-2.34-.56-2.34-1.68s.81-2.27,2.43-3.45c6.71-4.65,11.45-9.3,14.22-13.96.41-.79.74-1.19.99-1.19s.38.23.38.68-.19,1.14-.57,2.05ZM253.47,106.27c0,5.49-2.42,12.01-7.24,19.54-3.62,5.59-7.21,9.08-10.78,10.47-2.41.85-3.65.46-3.71-1.19-.06-1.65.69-2.96,2.25-3.93,3.27-2.18,6.21-4.61,8.83-7.29,2.62-2.68,3.93-4.91,3.93-6.69s-.66-3.61-1.99-5.48c-1.33-1.87-3.08-3.38-5.26-4.53,3.8-8.27,6.09-12.41,6.89-12.41,4.71,2.18,7.07,6.01,7.07,11.51Z"/>
      </g>
      <g>
        <path class="cls-1" d="M291.5,198.2h.26c2.75,1.57,4.12,3.84,4.12,6.82v.13c0,3.69-1.72,7.81-5.15,12.35-2.02,2.32-3.99,3.47-5.92,3.47-1.29,0-2.02-.77-2.19-2.32v-.9c.13-2.14,1.59-5.36,4.38-9.65.13-.19.34-1.05.64-2.57,1.97-4.63,3.26-7.08,3.86-7.33ZM285.32,213.77c.15,1.03.66,1.54,1.54,1.54,2.92-.47,4.38-1.59,4.38-3.35,0-1.01-1.12-2.25-3.35-3.73h-.13c-1.63,2.36-2.44,4.2-2.44,5.53Z"/>
        <path class="cls-1" d="M313.44,200.92c.86,1,1.29,2.68,1.29,5.03,0,3.97-1.05,7.82-3.15,11.55-2.47,4.29-5.71,6.94-9.72,7.95-1.84.45-2.77.11-2.77-1.03s.58-2.02,1.74-2.7c6.33-3.88,9.49-6.79,9.49-8.72,0-.26-.11-.45-.34-.58-.23-.13-.48-.1-.77.1-.29.19-.69.29-1.21.29-1.84-.04-2.99-.68-3.44-1.9,0-1.76,1.23-4.88,3.7-9.36.75-1.42,1.63-2.12,2.64-2.12.84,0,1.68.5,2.54,1.5Z"/>
        <path class="cls-1" d="M310.93,211.23c-.11-.32-.18-.68-.22-1.06-.04-.39-.1-.78-.16-1.19-.17-.58-.11-1.09.19-1.54.19-.43.48-.8.87-1.13l2.16-1.77c2.1-1.87,3.45-4.3,4.05-7.3.24-1.03.42-2.04.55-3.02.13-.96.31-2.73.53-5.31.22-2.57.49-4.74.79-6.5.3-1.76.75-3.29,1.35-4.6l2.83-6.82c.26-.13.39.06.39.58-.04.26-.2,1.04-.48,2.35-.28,1.31-.61,3.67-.98,7.08-.38,3.41-.58,6.22-.63,8.43l-.77,9.52c-.09.47-.21,1.16-.39,2.06-.41,1.39-.97,2.09-1.67,2.09-.52.9-.76,1.35-.74,1.35-.71.99-1.49,1.98-2.35,2.99-1.03,1.18-1.87,2.05-2.51,2.61-.62.54-1.43,1.21-2.41,2.03l-.39-.84ZM395.44,117.23h.26v.9c-.88,3.56-4.65,8.06-11.32,13.51-7.57,5.08-20.83,13.4-39.76,24.96-6.35,4.12-12.44,8.49-18.27,13.13-.79.34-1.22.52-1.29.52l-.13-.26c.99-3.35,6.52-8.71,16.6-16.08,4.93-3.3,18.92-12.27,41.95-26.9,3.67-2.64,7.66-5.9,11.97-9.78Z"/>
        <path class="cls-1" d="M339.24,197.85c-.37.13-.75.21-1.14.24s-.78.07-1.14.11c-.86.04-1.54.25-2.06.61-.71.49-1.91,1.93-3.6,4.31-1.87,2.77-3.99,4.15-6.37,4.15-2.66,0-4.57-1.16-5.73-3.47-.86-2.06-1.24-4.39-1.16-6.98.24-3.58.72-6.25,1.45-8.01.77-1.76,1.5-2.64,2.19-2.64.15,0,.32.14.51.42v2.96c.09.94.34,2.04.76,3.28.42,1.24,1.12,2.25,2.11,3.02,1.05.71,2.39,1.06,4.02,1.06,2.36-.04,4.15-.76,5.37-2.16,1.22-1.39,2.14-2.18,2.77-2.35.36-.11.77-.11,1.22-.02s.85.13,1.19.11c1.07-.04,2.03-.43,2.88-1.17.85-.74,1.6-1.69,2.27-2.85.02-.06.06-.13.13-.19.13-.13.28-.16.45-.1.36.11.69.17.98.19.29.02.58-.06.87-.26.29-.19.6-.54.92-1.05s.7-1.24,1.13-2.2c.32-.92.63-1.31.93-1.16.21.04.25.54.1,1.48-.47,2.08-1.05,3.77-1.72,5.07-.68,1.3-1.37,2.23-2.08,2.8-.71.57-1.62.99-2.73,1.27-.62.69-1.34,1.36-2.16,2.01-.82.65-1.6,1.15-2.35,1.5ZM339.12,164.44c.03.08.07.18.11.28l.09.28c0,.08,0,.15.03.19,0,.04,0,.08.02.12,0,.04.01.08.01.13s0,.07.02.09c0,.02.01.05.01.09,0,.4-.04.76-.12,1.09,0,.04,0,.07-.02.09s-.01.05-.01.09l-.12.37-.09.19s-.04.09-.05.16c0,.06-.04.11-.08.16l-.18.37-.36.59-.51.78c-.1.17-.21.33-.33.48s-.24.32-.36.48c-.16.19-.32.38-.48.56s-.33.36-.51.53l-.3.31-.15.13c-.24.21-.45.34-.62.41-.17.06-.32.07-.44.03-.08-.02-.15-.05-.2-.08-.05-.03-.1-.07-.14-.11l-.73-.59-.3-.28-1.78-1.5-.21-.16c-.42-.33-.84-.63-1.24-.9-.12-.1-.18-.2-.18-.3s.05-.22.15-.39l4.63-7.27c.14-.23.3-.32.48-.28l.06.03s.07.02.15.06c.04.04.08.06.12.06.26.17.52.34.79.52.26.18.52.36.79.55l.33.28c.22.19.42.38.61.56.18.19.35.4.51.62l.18.25.27.5.06.12c.04.1.08.2.11.28ZM344.4,153.15c.16.58.16,1.19-.02,1.81-.17.62-.47,1.27-.89,1.93-.34.54-.69,1.05-1.04,1.51-.35.47-.74.91-1.16,1.33-.26.29-.5.5-.7.62-.2.12-.37.2-.51.23-.14.03-.26.03-.36-.02-.1-.04-.19-.09-.27-.16-.71-.58-1.4-1.17-2.07-1.76-.68-.59-1.42-1.15-2.22-1.67-.1-.15-.15-.25-.15-.33s.05-.19.15-.36l4.6-7.3c.14-.19.28-.28.41-.27s.28.07.44.17c.4.25.81.52,1.22.8.41.28.79.6,1.13.95.34.35.65.73.91,1.14.26.41.44.86.54,1.36ZM348.57,164.41c.16.58.16,1.19-.02,1.81-.17.62-.47,1.27-.89,1.93-.34.54-.69,1.05-1.04,1.51-.35.47-.74.91-1.16,1.33-.26.29-.49.5-.7.62-.2.12-.37.2-.51.23-.14.03-.26.03-.36-.02s-.19-.09-.27-.16c-.71-.58-1.4-1.17-2.07-1.76-.68-.59-1.42-1.15-2.22-1.67-.1-.15-.15-.25-.15-.33s.05-.19.15-.36l4.6-7.3c.14-.19.28-.28.41-.27.13.01.28.07.44.17.4.25.81.52,1.22.8.41.28.79.6,1.13.95.34.35.65.73.91,1.14s.44.86.54,1.36Z"/>
      </g>
      <g>
        <path class="cls-1" d="M9.45,69.98c-.68,1.65-1.32,3.32-1.92,5.01-.6,1.69-1.13,3.37-1.57,5.04-.44,1.66-.79,3.3-1.06,4.9-.26,1.6-.38,3.14-.35,4.62.47,4.42,2.28,7.66,5.43,9.74,3.15,2.08,6.86,3.22,11.13,3.42,5.74,0,11.26-1.53,16.56-4.59,3.95-2.62,7.11-5.9,9.5-9.85,3.62-5.51,5.34-13.1,5.17-22.79-.03-1.18-.04-2.36-.04-3.56s-.03-2.39-.09-3.6c-.21-1.41-.12-2.55.27-3.4.38-.85,1.1-1.31,2.16-1.37.29-.03.64-.02,1.04.02.4.04.81.1,1.24.15.43.06.85.1,1.28.13s.8.03,1.13,0c1.5-.18,2.66-.85,3.49-2.03.74-.91,1.46-1.02,2.16-.31,1.94.77,3.39.09,4.33-2.03.24-.71.71-.77,1.41-.18.35.12.81.1,1.37-.04.5.94.71,1.87.64,2.78-.07.91-.29,1.84-.64,2.78-.82.71-1.63,1.18-2.43,1.41-.79.24-1.3.32-1.5.27-.24.09-.47.23-.71.42-.24.19-.53.38-.88.55-.35.18-.79.34-1.3.49-.52.15-1.17.22-1.97.22-.41.35-.91.68-1.48.97-.57.29-1.16.55-1.77.77s-1.2.43-1.79.62c-.59.19-1.12.36-1.59.51l-.18,1.85c-.79,9.45-2.65,17.9-5.56,25.35-1.94,4.95-4.43,9.58-7.46,13.91-7.15,9.69-15.75,14.54-25.79,14.57-4.89-.27-9.01-1.94-12.37-5.04-3.36-3.09-5.12-7.46-5.3-13.12.12-9.01,2.96-18.89,8.52-29.64l1.59-3.27c.09-.03.16.06.22.27.06.21.07.49.04.86-.03.37-.1.79-.22,1.26-.12.47-.28.96-.49,1.46l-.22.44ZM45.47,22.24c.04.12.1.25.15.4l.13.4c0,.12.01.21.04.26,0,.06,0,.12.02.18.01.06.02.12.02.18s0,.1.02.13c.01.03.02.07.02.13,0,.56-.06,1.08-.18,1.55,0,.06,0,.1-.02.13-.02.03-.02.07-.02.13l-.18.53-.13.26c-.03.06-.05.13-.07.22-.02.09-.05.16-.11.22l-.27.53-.53.84-.75,1.1c-.15.24-.31.46-.49.68-.18.22-.35.45-.53.68-.24.27-.47.53-.71.79-.24.27-.49.52-.75.75l-.44.44-.22.18c-.35.29-.66.49-.91.57-.25.09-.46.1-.64.04-.12-.03-.21-.07-.29-.11-.07-.04-.14-.1-.2-.15l-1.06-.84-.44-.4-2.61-2.12-.31-.22c-.62-.47-1.22-.9-1.81-1.28-.18-.15-.27-.29-.27-.42s.07-.32.22-.55l6.76-10.29c.21-.32.44-.46.71-.4l.09.04s.1.03.22.09c.06.06.12.09.18.09.38.24.77.48,1.15.73.38.25.77.51,1.15.77l.49.4c.32.26.62.53.88.79.27.26.51.56.75.88l.27.35.4.71.09.18c.06.15.11.28.15.4ZM53.18,6.25c.24.82.23,1.68-.02,2.56-.25.88-.68,1.8-1.3,2.74-.5.77-1.01,1.48-1.52,2.14-.52.66-1.08,1.29-1.7,1.88-.38.41-.72.71-1.02.88-.29.18-.54.29-.75.33-.21.04-.38.04-.53-.02-.15-.06-.28-.13-.4-.22-1.03-.82-2.04-1.66-3.03-2.5-.99-.84-2.07-1.63-3.25-2.36-.15-.21-.22-.36-.22-.46s.07-.27.22-.51L46.37.38c.21-.26.4-.39.6-.38.19.02.4.1.64.24.59.35,1.19.73,1.79,1.13s1.16.85,1.66,1.35c.5.5.94,1.04,1.33,1.61.38.57.65,1.21.79,1.92ZM59.27,22.19c.23.82.23,1.68-.02,2.56-.25.88-.68,1.8-1.3,2.74-.5.77-1.01,1.48-1.52,2.14-.52.66-1.08,1.29-1.7,1.88-.38.41-.72.71-1.02.88-.29.18-.55.29-.75.33-.21.04-.38.04-.53-.02-.15-.06-.28-.13-.4-.22-1.03-.82-2.04-1.66-3.03-2.5-.99-.84-2.07-1.63-3.25-2.36-.15-.21-.22-.36-.22-.46s.07-.27.22-.51l6.71-10.33c.21-.27.4-.39.6-.38.19.02.4.1.64.24.59.35,1.18.73,1.79,1.13.6.4,1.16.85,1.66,1.35.5.5.94,1.04,1.32,1.61.38.57.65,1.21.8,1.92Z"/>
        <path class="cls-1" d="M79.72,38.01c.38-.5.74-.91,1.06-1.21.32-.31.66-.61,1.02-.91.32-.32.82-1,1.5-2.03,1-1.53,1.68-2.58,2.03-3.14.09-.09.35.13.79.66.44.53,1.04,1.25,1.81,2.16.77.91,1.35,1.78,1.77,2.61.53,1.15.74,2.21.62,3.18-.06,1.21-.43,2.39-1.13,3.53-.69,1.15-1.44,1.97-2.23,2.47-.91.56-1.88.85-2.92.88-1.03.03-2-.03-2.92-.18-1.06-.18-1.87-.03-2.43.44-.53.41-1.18,1.16-1.94,2.25-1.44,2.56-3,4.59-4.68,6.09-.24-.38-.44-.78-.62-1.19-.18-.41-.29-.84-.35-1.28-.06-.44-.02-.92.11-1.44.13-.51.42-1.07.86-1.66,1.27-.68,2.75-2.59,4.44-5.74,1.69-3.15,2.76-4.99,3.2-5.52Z"/>
        <path class="cls-1" d="M105.91,44.98c-.21,1.24-.61,5.64-1.21,13.21-.6,7.57-1.29,12.73-2.05,15.5-2.3,8.51-5.23,14.6-8.79,18.28-1.5,1.15-3.25,1.84-5.23,2.08-1.99.24-3.32.24-4,0,0-.24,1.56-1.59,4.68-4.06,5.68-4.48,9.01-9.33,9.98-14.58.29-2.15.56-5.29.79-9.43.24-4.14.41-7.04.53-8.72.27-1.88,1.04-4.64,2.34-8.26,1.3-3.62,2.24-5.76,2.83-6.4.24-.18.37-.13.4.13.03.26-.06,1.02-.26,2.25Z"/>
        <path class="cls-1" d="M129.23,66.8c-2.83,9.69-6.04,16.77-9.63,21.24-3.59,4.48-7.01,6.86-10.25,7.15-2.3.06-3.44-.59-3.44-1.94s.53-2.47,1.59-3.36,2.52-1.85,4.39-2.89c1.87-1.04,3.86-2.41,5.96-4.11,2.1-1.69,3.82-3.7,5.15-6.03,1.32-2.33,2.61-5.04,3.84-8.15,1.24-3.11,2.09-4.66,2.56-4.66.21,0,.31.21.31.64s-.16,1.13-.49,2.1Z"/>
        <path class="cls-1" d="M152.15,45.78c-.21,1.24-.61,5.64-1.21,13.21-.6,7.57-1.29,12.74-2.05,15.5-2.3,8.51-5.23,14.6-8.79,18.28-1.5,1.15-3.25,1.84-5.23,2.08-1.99.24-3.32.24-4,0,0-.24,1.56-1.59,4.68-4.06,5.68-4.48,9.01-9.33,9.98-14.57.29-2.15.56-5.29.79-9.43.24-4.14.41-7.04.53-8.72.27-1.88,1.04-4.64,2.34-8.26,1.3-3.62,2.24-5.76,2.83-6.4.24-.18.37-.13.4.13.03.26-.06,1.02-.26,2.25ZM176.62,7c-1.85,6.92-5.59,12.93-11.2,18.04-5.61,5.11-11.43,7.66-17.47,7.66-2.06,0-3.98-.34-5.74-1.02-1.77-.68-3.25-.95-4.46-.82-1.21.13-2.44.62-3.71,1.46-1.27.84-2.08,1.26-2.45,1.26s-.55-.12-.55-.35c.06-1.09,1.25-2.92,3.58-5.48,2.33-2.56,4.54-4.5,6.65-5.83,2.1-1.32,4.01-1.99,5.72-1.99.65,0,1.5.27,2.56.82,1.06.55,2.43.82,4.11.82s4.09-.46,7.24-1.37c5.86-1.83,10.66-6.14,14.4-12.94.65-1.32,1.07-1.87,1.28-1.63.21.24.22.69.04,1.37Z"/>
      </g>
    </g>
  </g>
</svg>