<?xml version="1.0" encoding="UTF-8"?>
<svg id="Layer_2" data-name="Layer 2" xmlns="http://www.w3.org/2000/svg" viewBox="0 0 29.23 38.84">
  <defs>
    <style>
      .cls-1 {
        fill: #c9a66b;
        stroke-width: 0px;
      }
    </style>
  </defs>
  <g id="Layer_1-2" data-name="Layer 1">
    <g>
      <path class="cls-1" d="M5.81,10.9c-1.02,1.03-1.97,1.98-2.93,2.94-.1.1-.19.25-.31.28-.2.05-.5.1-.63,0-.46-.36-.74-.83-.65-1.47.03-.18-.06-.4-.16-.56C-.74,8.92-.25,4.92,2.33,2.34,4.96-.28,9-.75,12.17,1.18c.16.1.38.15.57.16.55.02.96.27,1.3.66.23.27.13.55-.11.79-.75.74-1.49,1.49-2.24,2.24-.1.1-.19.2-.34.35h10.45c.04-.36.08-.73.13-1.1.18-1.43,1.37-2.52,2.81-2.54,1.27-.02,2.55,0,3.82,0,.46,0,.65.19.65.66,0,.42,0,.85,0,1.27,0,.64-.14.78-.76.78-1.06,0-2.11,0-3.17,0q-.67,0-.71.68c0,.08,0,.15,0,.28.28,0,.55,0,.81,0,.6,0,.78.18.72.77-.13,1.47-.28,2.95-.42,4.42-.22,2.32-.44,4.64-.66,6.95-.25,2.61-.5,5.22-.74,7.84-.24,2.57-.5,5.15-.72,7.72-.11,1.29-.16,2.59-.23,3.89-.06.95-.83,1.74-1.78,1.82-.15.01-.31.01-.46.01-3.57,0-7.13-.03-10.7.02-1.51.02-2.28-1.05-2.3-2.29-.04-1.89-.24-3.77-.4-5.65-.2-2.32-.44-4.64-.66-6.95-.25-2.63-.5-5.25-.75-7.88-.14-1.49-.28-2.97-.42-4.46-.02-.2-.04-.41-.08-.71ZM24.23,14.63c-.22.07-.37.13-.52.18-2.32.81-4.64.86-6.94-.04-.79-.31-1.52-.76-2.31-1.06-2.19-.84-4.39-.62-6.58.08-.67.22-.68.22-.61.94.29,3.14.58,6.28.88,9.41.32,3.41.66,6.81.96,10.22.03.36.13.46.5.46,4.09-.01,8.19,0,12.28,0,.14,0,.28,0,.44,0,.64-6.74,1.27-13.43,1.91-20.18ZM7.09,12.9c.19-.06.31-.1.43-.14,3.03-1,5.97-.99,8.83.64,1.38.79,2.92,1.04,4.55.91.27-2.6.54-5.19.81-7.79H6.49c.2,2.13.4,4.23.6,6.37ZM9.21,35.92c0,.2,0,.38,0,.56,0,1.02.25,1.27,1.27,1.27,3.51,0,7.02,0,10.53,0,.17,0,.34,0,.5-.02.38-.05.71-.35.74-.73.03-.35,0-.71,0-1.08h-13.05ZM12.58,2.6c-.26-.12-.53-.2-.75-.35C9.18.48,5.61.76,3.27,2.93.96,5.09.42,8.63,1.97,11.39c.22.4.38.84.54,1.2.11-.1.31-.28.5-.46-2.24-2.81-1.76-6.4.21-8.52,1.03-1.1,2.28-1.79,3.77-2.01,1.92-.29,3.64.22,5.16,1.44.16-.17.31-.32.42-.44ZM3.85,11.37c.45-.46.84-.94,1.32-1.32.53-.43.57-.91.39-1.5h-2.9c.05.96.55,2.14,1.2,2.82ZM11.39,3.83c-.86-.68-1.78-1.07-2.85-1.18v2.77c.32,0,.61.01.91,0,.15,0,.33-.01.43-.1.51-.47.99-.96,1.51-1.48ZM2.64,7.41h2.84c-.03-.35-.05-.68-.09-.99-.02-.14-.07-.31-.16-.41-.44-.48-.91-.94-1.4-1.44-.69.85-1.08,1.78-1.19,2.84ZM4.59,3.82c.52.52,1,1,1.48,1.48.05.05.13.1.2.11.38.01.76,0,1.15,0v-2.76c-1.06.11-1.97.49-2.83,1.17ZM22.79,6.51c-.26,2.56-.52,5.09-.78,7.61.53.06.67-.18.7-.62.14-1.66.31-3.33.47-4.99.06-.66.12-1.32.18-2h-.57ZM23.78,13.58c.43-.04.59-.24.62-.63.15-1.77.32-3.53.49-5.29.03-.38.06-.75.09-1.11-.41-.13-.55-.02-.58.38-.09,1.2-.23,2.4-.34,3.6-.1,1.01-.19,2.02-.29,3.06ZM22.9,5.38h.57c.03-.24.05-.46.08-.68.12-.94.55-1.33,1.5-1.33.66,0,1.31,0,1.97,0,.37,0,.74,0,1.1,0v-.55c-1.17,0-2.32-.03-3.46,0-.75.02-1.41.59-1.59,1.31-.1.39-.11.81-.17,1.24Z"/>
      <path class="cls-1" d="M18.57,29.12c-.1.16-.16.32-.27.44-.69.71-1.39,1.41-2.1,2.1-.31.31-.59.3-.9,0-.7-.7-1.41-1.4-2.1-2.1-.3-.3-.3-.58,0-.87.7-.72,1.41-1.43,2.13-2.13.29-.29.58-.29.88,0,.72.7,1.43,1.41,2.13,2.13.11.11.17.28.26.44ZM14.38,29.11c.45.45.92.93,1.35,1.36.46-.45.94-.93,1.39-1.38-.44-.45-.92-.92-1.36-1.37-.46.46-.94.94-1.38,1.38Z"/>
      <path class="cls-1" d="M14.86,17.86c-.1.17-.15.33-.26.44-.65.66-1.3,1.32-1.96,1.96-.32.31-.58.3-.9-.01-.65-.64-1.3-1.28-1.94-1.93-.31-.31-.31-.59,0-.9.64-.65,1.29-1.29,1.93-1.93.33-.33.59-.33.93.01.64.63,1.28,1.27,1.91,1.91.12.12.19.29.29.46ZM10.95,17.84c.43.44.84.87,1.22,1.25.42-.41.84-.83,1.26-1.24-.41-.4-.84-.82-1.25-1.24-.4.4-.83.83-1.23,1.23Z"/>
      <path class="cls-1" d="M18.77,20.9c.16.1.33.17.45.29.44.42.86.84,1.28,1.28.31.32.31.58,0,.9-.42.43-.85.86-1.28,1.28-.32.31-.59.3-.9,0-.43-.42-.86-.85-1.28-1.28-.29-.3-.3-.58-.02-.87.44-.45.88-.9,1.34-1.33.1-.1.25-.16.41-.25ZM18.81,22.3c-.23.23-.43.42-.61.59.19.2.4.4.58.59.19-.19.39-.4.59-.62-.18-.18-.38-.38-.56-.57Z"/>
    </g>
  </g>
</svg>