<?xml version="1.0" encoding="UTF-8"?>
<svg id="Layer_2" data-name="Layer 2" xmlns="http://www.w3.org/2000/svg" viewBox="0 0 34 31.64">
  <defs>
    <style>
      .cls-1 {
        fill: #c9a66b;
        stroke-width: 0px;
      }
    </style>
  </defs>
  <g id="Layer_1-2" data-name="Layer 1">
    <g>
      <path class="cls-1" d="M0,15.94c.22-.59.66-.81,1.27-.79.54.02,1.08.01,1.63,0,.1,0,.26-.09.29-.17.57-1.65,1.56-2.98,3-3.97.03-.02.04-.05.08-.1-.63-.63-1.27-1.26-1.9-1.89-.16-.16-.32-.31-.47-.47-.56-.59-.38-1.4.38-1.68,1.21-.45,2.43-.89,3.64-1.33.19-.07.37-.14.58-.22-.13-.33-.26-.64-.37-.96-.22-.61-.03-1.09.56-1.36,2.06-.96,4.13-1.92,6.19-2.87.8-.37,1.49.11,1.49,1.02,0,2.28,0,4.55,0,6.83,0,.13,0,.26,0,.45.42-.22.78-.4,1.14-.6,5.45-2.98,12.09.05,13.39,6.12.08.39.13.78.19,1.23.59,0,1.19,0,1.8,0,.34,0,.64.09.86.36.1.13.17.28.25.42v4.64c-.08.49-.13.98-.23,1.46-1.12,5.46-5.71,9.39-11.29,9.54-3.58.1-7.17.03-10.75.02-.59,0-1.19-.06-1.78-.16-4.73-.78-8.55-4.37-9.62-9.01C.18,21.83.11,21.2,0,20.58c0-1.55,0-3.09,0-4.64ZM2.01,17.17c0,.1-.02.19-.02.27,0,.83-.01,1.66,0,2.48.05,2.15.71,4.1,2.04,5.8,2.02,2.58,4.7,3.89,7.98,3.9,3.32.02,6.64,0,9.96,0,.47,0,.95-.04,1.42-.09,3.82-.46,7.14-3.32,8.22-7.02.51-1.74.39-3.52.38-5.29,0-.02-.03-.03-.04-.05H2.01ZM29.05,15.14c0-.05.01-.09,0-.12-.29-2.38-1.46-4.23-3.54-5.42-2.36-1.35-4.77-1.29-7.15.01-2.5,1.37-5.17,2.06-8.03,2.1-2.26.03-3.91,1.16-4.96,3.15-.04.08-.06.17-.1.27h10.85c-.02-.88.34-1.35,1.02-1.33.64.02,1,.53.93,1.33h10.97ZM10.32,4.43c.01.05.01.09.02.12.63,1.62,1.26,3.24,1.9,4.86.03.08.2.16.29.15.51-.09,1.01-.21,1.52-.31.25-.05.33-.16.33-.42-.01-1.97,0-3.95,0-5.92,0-.1-.01-.2-.02-.34-1.38.64-2.71,1.25-4.04,1.87ZM6.37,8.22c.47.47.93.88,1.33,1.34.32.37.63.51,1.13.35.43-.14.9-.15,1.37-.23-.33-.85-.66-1.67-.98-2.51-.96.35-1.88.69-2.85,1.05Z"/>
      <path class="cls-1" d="M22.41,10.69c.56,0,.99.41,1.01.97.02.54-.43,1-.97,1.01-.55,0-1-.43-1.01-.98,0-.55.43-1,.97-1Z"/>
    </g>
  </g>
</svg>