<?xml version="1.0" encoding="UTF-8"?>
<svg id="Layer_2" data-name="Layer 2" xmlns="http://www.w3.org/2000/svg" viewBox="0 0 38.31 34.63">
  <defs>
    <style>
      .cls-1 {
        fill: #c9a66b;
        stroke-width: 0px;
      }
    </style>
  </defs>
  <g id="Layer_1-2" data-name="Layer 1">
    <g>
      <path class="cls-1" d="M34.73,27.44c.26.04.45.07.64.1,1.77.3,3.05,1.95,2.93,3.79-.11,1.75-1.6,3.21-3.35,3.29-.16,0-.31,0-.47,0-10.22,0-20.44,0-30.65,0-1.9,0-3.28-1.02-3.72-2.73-.51-2.02.88-4.16,2.97-4.35,1.52-.14,3.07-.06,4.6-.08.25,0,.5,0,.92,0-.29-.22-.45-.35-.62-.46-3.97-2.83-4.97-8.18-2.26-12.23.2-.3.21-.52.07-.85-.54-1.25-1.48-2.16-2.48-3.03-.11-.1-.35-.12-.51-.08-1.29.33-2.45-.33-2.72-1.56-.26-1.18.52-2.23,1.82-2.5.15-.03.33-.23.38-.38.36-1.24,1.51-1.91,2.69-1.55,1.16.36,1.72,1.58,1.31,2.81-.06.17-.05.43.05.57.88,1.25,1.94,2.32,3.36,2.97.16.07.38.11.55.08.94-.19,1.87-.4,2.91-.63-.2-.34-.41-.75-.65-1.13-.17-.27-.38-.5-.55-.76-.35-.52-.72-.84-1.47-.77-1.1.09-2-.92-2.01-2.03,0-1.11.88-2.04,1.99-2.09.16,0,.31,0,.5,0,.32-.97.93-1.63,2.02-1.67,1.6-.05,2.66,1.58,1.92,2.98-.21.4-.14.64.03,1.01.95,2.02,2.76,3.18,4.44,4.46.16.12.44.13.67.14,7.2.11,13.03,4.94,14.42,11.98.19.98.21,1.99.27,2.99.04.55,0,1.1,0,1.71ZM11.59,12.08c0,.05,0,.11,0,.16.46.26.92.53,1.37.79,1.9,1.13,3.75,2.33,5.22,4,2.06,2.35,1.3,6.02-1.5,7.4-2.06,1.02-4.43.46-5.98-1.44-1.35-1.66-2.29-3.56-3.21-5.47-.29-.6-.58-1.21-.9-1.9-.15.28-.27.46-.36.65-2.55,5.11,1.1,11.13,6.86,11.18,6.65.06,13.3.01,19.96.01.15,0,.3-.03.42-.04,0-1.2.11-2.37-.02-3.51-.77-6.81-6.5-11.91-13.36-11.95-2.3-.01-4.61,0-6.91,0-.52,0-1.04.08-1.56.12ZM19.17,33.44c3.62,0,7.24,0,10.86,0,1.59,0,3.19.02,4.78,0,1.19-.02,2.16-.96,2.29-2.14.12-1.11-.61-2.23-1.71-2.51-.39-.1-.82-.1-1.23-.1-10,0-20,0-29.99,0-.28,0-.57-.04-.82.04-.46.14-.95.29-1.32.57-.79.61-1.03,1.69-.68,2.61.35.94,1.23,1.54,2.29,1.54,5.18,0,10.35,0,15.53,0ZM6.19,12.1c1.14,2.34,2.22,4.67,3.41,6.94.62,1.17,1.35,2.31,2.17,3.35,1.33,1.66,3.65,1.8,5.19.42,1.52-1.36,1.58-3.68.11-5.2-.53-.55-1.08-1.11-1.72-1.52-2.65-1.71-5.34-3.36-8.03-5.03-.43.39-.78.72-1.13,1.04ZM6.42,10.26c-.48-.61-.92-1.18-1.38-1.74-.31-.38-.39-.73-.02-1.14.35-.4.3-.85-.09-1.21-.35-.32-.76-.33-1.13-.04-.42.32-.47.76-.19,1.2.22.33.33.64,0,.94-.31.28-.6.14-.89-.09-.41-.32-.85-.33-1.22.05-.35.36-.37.78-.05,1.17.34.4.77.47,1.2.16.42-.3.76-.2,1.1.12.54.51,1.09,1,1.65,1.52.34-.31.66-.6,1.02-.92ZM14.59,7.94c-.39-.69-.75-1.34-1.13-1.97-.23-.39-.23-.71.13-1.04.43-.41.47-.87.13-1.25-.31-.35-.7-.43-1.11-.2-.48.26-.56.7-.36,1.16.16.36.24.69-.14.93-.34.21-.62.05-.87-.23-.35-.38-.79-.45-1.21-.12-.4.3-.47.73-.22,1.15.27.45.7.57,1.17.32.43-.22.74-.12,1.02.24.47.59.96,1.18,1.46,1.79.39-.27.76-.52,1.13-.78ZM17.51,10.76c-.82-.68-1.51-1.25-2.21-1.84-.41.29-.81.56-1.31.9.25.34.45.86.71.9.88.11,1.77.04,2.82.04Z"/>
      <path class="cls-1" d="M26.74,2.38c-.29.77-.49,1.54-.87,2.21-.54.95-.61,1.84-.06,2.78.22.38.34.76-.12,1.01-.45.25-.73-.05-.94-.43-.71-1.29-.76-2.58.04-3.85.65-1.03.82-2.06.14-3.15-.21-.33-.16-.66.2-.86.35-.2.68-.06.84.29.28.64.5,1.3.77,2Z"/>
      <path class="cls-1" d="M23.34,4.08c-.31.78-.51,1.55-.89,2.21-.54.95-.6,1.85-.04,2.78.22.36.31.73-.1.98-.43.25-.73,0-.95-.39-.71-1.27-.8-2.55-.02-3.8.66-1.07.89-2.12.17-3.25-.2-.32-.14-.63.18-.82.34-.2.69-.11.85.24.29.65.52,1.33.8,2.04Z"/>
      <path class="cls-1" d="M30.45,20.86c-.13.15-.24.4-.42.46-.18.06-.46-.01-.63-.12-.15-.09-.22-.32-.3-.49-.73-1.55-1.85-2.71-3.36-3.51-.1-.06-.21-.1-.31-.16-.29-.2-.45-.45-.26-.8.18-.32.47-.42.8-.25.43.23.87.45,1.28.73,1.33.91,2.32,2.11,2.98,3.57.07.16.13.33.22.58Z"/>
      <path class="cls-1" d="M16.64,20.1c-.19.27-.32.61-.57.78-.31.21-.79-.12-.75-.54.08-.92-.39-1.51-1.02-2.06-.16-.14-.31-.38-.33-.58-.04-.45.49-.76.87-.48.94.69,1.69,1.53,1.8,2.88Z"/>
    </g>
  </g>
</svg>