<?xml version="1.0" encoding="UTF-8"?>
<svg id="Layer_2" data-name="Layer 2" xmlns="http://www.w3.org/2000/svg" viewBox="0 0 26.82 26.82">
  <defs>
    <style>
      .cls-1 {
        fill: #c9a66b;
        stroke-width: 0px;
      }
    </style>
  </defs>
  <g id="Layer_1-2" data-name="Layer 1">
    <g>
      <path class="cls-1" d="M20.77,12.01c-.84,0-1.69.09-2.51-.02-1.92-.25-3.3-1.62-3.44-3.54-.12-1.59-.12-3.2,0-4.79.15-1.98,1.59-3.42,3.58-3.57,1.59-.12,3.2-.12,4.79,0,1.97.15,3.4,1.57,3.55,3.53.12,1.62.12,3.27,0,4.88-.17,2.06-1.84,3.49-3.91,3.55-.68.02-1.36,0-2.04,0v-.05ZM20.74,9.41c.63,0,1.27,0,1.9,0,.93-.01,1.49-.55,1.5-1.47.02-1.27.02-2.53,0-3.8-.01-.9-.56-1.45-1.46-1.47-1.27-.02-2.53-.02-3.8,0-.93.01-1.47.57-1.48,1.5,0,1.25-.01,2.5,0,3.75,0,.92.56,1.47,1.48,1.49.62,0,1.23,0,1.85,0Z"/>
      <path class="cls-1" d="M14.78,20.76c0-.78-.06-1.56.01-2.33.18-1.97,1.59-3.47,3.58-3.63,1.59-.13,3.2-.12,4.79,0,1.98.15,3.41,1.59,3.56,3.58.12,1.57.12,3.17,0,4.74-.15,2.01-1.58,3.46-3.59,3.6-1.62.12-3.27.11-4.88-.02-2-.16-3.44-1.84-3.5-3.85-.02-.7,0-1.39,0-2.09,0,0,0,0,.01,0ZM20.78,17.4c-.62,0-1.23,0-1.85,0-.02,0-.03,0-.05,0-.9.02-1.47.56-1.48,1.45-.01,1.28-.01,2.56,0,3.85,0,.85.54,1.42,1.38,1.44,1.31.03,2.63.03,3.94,0,.85-.02,1.39-.57,1.41-1.42.02-1.3.02-2.6,0-3.89-.02-.87-.58-1.4-1.46-1.42-.63-.01-1.27,0-1.9,0Z"/>
      <path class="cls-1" d="M12.03,6.07c0,.81.08,1.62-.02,2.42-.23,1.95-1.58,3.35-3.53,3.51-1.6.13-3.23.13-4.84,0-2-.16-3.42-1.63-3.56-3.64-.11-1.54-.11-3.11,0-4.65C.22,1.71,1.64.24,3.65.09c1.62-.12,3.27-.12,4.88.01,2.03.17,3.47,1.84,3.53,3.88.02.7,0,1.39,0,2.09-.01,0-.02,0-.03,0ZM9.42,6.08c0-.63,0-1.27,0-1.9-.01-.93-.54-1.49-1.47-1.5-1.27-.02-2.53-.02-3.8,0-.91.01-1.46.56-1.47,1.46-.02,1.27-.02,2.53,0,3.8.01.93.57,1.47,1.49,1.48,1.25,0,2.5,0,3.75,0,.92,0,1.48-.56,1.49-1.48.01-.62,0-1.23,0-1.85Z"/>
      <path class="cls-1" d="M6.06,14.79c.82,0,1.66-.08,2.47.02,1.95.24,3.34,1.6,3.49,3.55.12,1.59.13,3.2,0,4.79-.16,2.02-1.64,3.45-3.67,3.58-1.53.1-3.08.1-4.6,0-2.03-.14-3.5-1.57-3.65-3.59-.12-1.62-.11-3.27.02-4.88.16-2,1.83-3.43,3.85-3.5.7-.02,1.39,0,2.09,0,0,.01,0,.02,0,.03ZM9.42,20.77c0-.62,0-1.23,0-1.85-.01-.96-.55-1.51-1.5-1.52-1.25,0-2.5,0-3.75,0-.9,0-1.47.54-1.49,1.44-.02,1.28-.02,2.56,0,3.85.01.88.55,1.43,1.43,1.45,1.3.02,2.6.03,3.89,0,.87-.02,1.4-.59,1.41-1.46.01-.63,0-1.27,0-1.9Z"/>
    </g>
  </g>
</svg>